<svg width="40" height="40" viewBox="0 0 40 40" fill="none" xmlns="http://www.w3.org/2000/svg">
<path fill-rule="evenodd" clip-rule="evenodd" d="M8.86945 14.8326C6.81898 17.2407 4.85297 20.2268 4.83326 22.4589C4.82558 23.2987 5.09369 24.0318 5.73679 24.5871C6.66231 25.3869 7.68204 25.6689 8.6968 25.6706C10.1797 25.6727 11.6522 25.0744 12.8052 24.6131C14.7469 23.8366 36.211 14.5156 36.211 14.5156C36.4181 14.4118 36.3793 14.2825 36.1201 14.347C36.0155 14.3732 12.7531 20.6773 12.7531 20.6773C12.3125 20.802 11.8572 20.8671 11.3993 20.8712C9.61153 20.8817 8.02071 19.8894 8.03358 17.7983C8.03856 16.98 8.28903 15.9933 8.86945 14.8326Z" fill="black"/>
</svg>
