<svg width="30" height="34" viewBox="0 0 30 34" fill="none" xmlns="http://www.w3.org/2000/svg">
<path d="M18.75 24.375H25L23.2437 22.6188C23.0079 22.3828 22.8208 22.1028 22.6932 21.7946C22.5656 21.4864 22.4999 21.1561 22.5 20.8225V16.875C22.5002 15.3237 22.0195 13.8104 21.124 12.5436C20.2286 11.2768 18.9625 10.3187 17.5 9.80125V9.375C17.5 8.71196 17.2366 8.07607 16.7678 7.60723C16.2989 7.13839 15.663 6.875 15 6.875C14.337 6.875 13.7011 7.13839 13.2322 7.60723C12.7634 8.07607 12.5 8.71196 12.5 9.375V9.80125C9.5875 10.8313 7.5 13.61 7.5 16.875V20.8238C7.5 21.4963 7.2325 22.1425 6.75625 22.6188L5 24.375H11.25M18.75 24.375V25.625C18.75 26.6196 18.3549 27.5734 17.6517 28.2767C16.9484 28.9799 15.9946 29.375 15 29.375C14.0054 29.375 13.0516 28.9799 12.3483 28.2767C11.6451 27.5734 11.25 26.6196 11.25 25.625V24.375M18.75 24.375H11.25" stroke="black" stroke-width="2" stroke-linecap="round" stroke-linejoin="round"/>
</svg>
