<svg width="30" height="30" viewBox="0 0 26 26" fill="none" xmlns="http://www.w3.org/2000/svg">
<path d="M1.75 13L4.25 10.5M4.25 10.5L13 1.75L21.75 10.5M4.25 10.5V23C4.25 23.3315 4.3817 23.6495 4.61612 23.8839C4.85054 24.1183 5.16848 24.25 5.5 24.25H9.25M21.75 10.5L24.25 13M21.75 10.5V23C21.75 23.3315 21.6183 23.6495 21.3839 23.8839C21.1495 24.1183 20.8315 24.25 20.5 24.25H16.75M9.25 24.25C9.58152 24.25 9.89946 24.1183 10.1339 23.8839C10.3683 23.6495 10.5 23.3315 10.5 23V18C10.5 17.6685 10.6317 17.3505 10.8661 17.1161C11.1005 16.8817 11.4185 16.75 11.75 16.75H14.25C14.5815 16.75 14.8995 16.8817 15.1339 17.1161C15.3683 17.3505 15.5 17.6685 15.5 18V23C15.5 23.3315 15.6317 23.6495 15.8661 23.8839C16.1005 24.1183 16.4185 24.25 16.75 24.25M9.25 24.25H16.75" stroke="black" stroke-width="2" stroke-linecap="round" stroke-linejoin="round"/>
</svg>
