<svg width="30" height="30" viewBox="0 0 20 26" fill="none" xmlns="http://www.w3.org/2000/svg">
<path d="M15 6.75C15 8.07608 14.4732 9.34785 13.5355 10.2855C12.5979 11.2232 11.3261 11.75 10 11.75C8.67392 11.75 7.40215 11.2232 6.46447 10.2855C5.52678 9.34785 5 8.07608 5 6.75C5 5.42392 5.52678 4.15215 6.46447 3.21447C7.40215 2.27678 8.67392 1.75 10 1.75C11.3261 1.75 12.5979 2.27678 13.5355 3.21447C14.4732 4.15215 15 5.42392 15 6.75V6.75ZM10 15.5C7.67936 15.5 5.45376 16.4219 3.81282 18.0628C2.17187 19.7038 1.25 21.9294 1.25 24.25H18.75C18.75 21.9294 17.8281 19.7038 16.1872 18.0628C14.5462 16.4219 12.3206 15.5 10 15.5V15.5Z" stroke="black" stroke-width="2" stroke-linecap="round" stroke-linejoin="round"/>
</svg>
